<svg xmlns="http://www.w3.org/2000/svg" viewBox="0 0 100 100">
  <rect width="100" height="100" rx="12" fill="#0a0a0a"/>
  <svg x="15" y="10" width="70" height="80" viewBox="0 0 2000 2000">
    <g transform="translate(0,2000) scale(0.1,-0.1)" fill="#e74c3c">
      <path d="M8830 14036 l0 -34 103 -4 c138 -6 207 -39 248 -120 36 -71 40 -202 36 -1243 -4 -1082 -2 -1050 -59 -1119 -75 -91 -114 -96 -727 -96 l-506 0 -52 -163 c-28 -89 -77 -243 -108 -342 -31 -99 -64 -205 -75 -235 -11 -30 -18 -55 -16 -57 1 -2 16 -6 33 -9 30 -6 31 -5 76 89 85 180 175 298 277 366 144 95 209 106 660 106 385 0 404 -2 454 -54 24 -25 30 -42 38 -115 5 -49 7 -502 5 -1083 -3 -802 -6 -1007 -17 -1042 -31 -101 -134 -155 -320 -169 l-105 -7 0 -30 0 -30 149 -3 148 -3 -6 -27 c-4 -15 -33 -110 -66 -212 -167 -526 -160 -500 -136 -500 8 0 21 -3 30 -6 12 -4 25 15 54 78 61 132 118 223 183 293 111 119 207 166 374 184 120 14 685 14 756 1 71 -13 113 -56 128 -132 18 -84 10 -2088 -8 -2146 -33 -104 -138 -160 -318 -169 l-113 -6 0 -33 0 -34 614 0 614 0 -2 33 -2 32 -105 5 c-82 5 -114 11 -151 30 -67 33 -88 59 -109 137 -18 65 -19 119 -19 1118 0 1176 -2 1136 67 1207 74 76 43 72 663 78 l555 5 42 124 c23 68 64 197 92 285 27 89 66 212 86 275 19 63 34 116 32 117 -2 2 -17 6 -33 10 -28 5 -30 3 -68 -80 -124 -275 -272 -417 -486 -463 -74 -16 -134 -18 -460 -18 -360 0 -376 1 -410 21 -48 28 -78 75 -85 137 -3 29 -5 516 -3 1082 l3 1030 22 41 c53 99 137 137 335 151 l89 6 -3 31 -3 31 -148 3 c-121 2 -148 5 -144 16 3 8 24 72 46 142 22 71 67 217 101 324 34 107 65 207 70 222 7 24 5 28 -21 37 -33 12 -26 20 -90 -111 -84 -171 -160 -269 -263 -343 -132 -93 -238 -110 -676 -110 -353 0 -403 6 -445 56 -51 61 -50 41 -50 1134 0 1151 -3 1108 69 1180 59 59 130 83 269 93 l112 7 3 33 3 32 -615 0 -616 0 0 -34z m1450 -2878 c34 -14 90 -70 90 -88 0 -10 -737 -1289 -751 -1305 -12 -12 -11 1133 1 1257 5 54 17 112 26 129 l16 31 291 -4 c234 -4 299 -8 327 -20z m107 -1540 c-3 -425 -9 -681 -16 -712 -21 -93 -4 -89 -341 -84 -290 3 -296 4 -337 27 -48 28 -77 78 -71 125 5 41 749 1329 761 1317 5 -5 7 -286 4 -673z"/>
    </g>
  </svg>
</svg>
